<?xml version="1.0" standalone="no"?><!DOCTYPE svg PUBLIC "-//W3C//DTD SVG 1.1//EN" "http://www.w3.org/Graphics/SVG/1.1/DTD/svg11.dtd"><svg t="1714652998384" class="icon" viewBox="0 0 1024 1024" version="1.1" xmlns="http://www.w3.org/2000/svg" p-id="9208" xmlns:xlink="http://www.w3.org/1999/xlink" width="200" height="200"><path d="M409 533.2H228v61.7h181v-61.7zM228 730.9h181v-61.7H228v61.7z m635.9-515.8h-95.4v-65.9h-50v65.9h-400v-65.9h-50v65.9H160.1c-31.5 0-57.2 25.7-57.2 57.2v550.8c0 31.5 25.7 57.2 57.2 57.2h510.7c-18-13.9-33.5-30.8-45.9-50H160.1c-4 0-7.2-3.2-7.2-7.2V438.3H871v98.3c18.2 7.6 35 17.9 50 30.2V272.3c0.1-31.5-25.6-57.2-57.1-57.2z m7.2 173.2H152.9v-116c0-4 3.2-7.2 7.2-7.2h108.4v69.6h50v-69.6h400v69.6h50v-69.6h95.4c4 0 7.2 3.2 7.2 7.2v116zM488.6 669.2v61.7h104.5c-0.1-3.1-0.2-6.2-0.2-9.3 0-18.1 2.4-35.7 6.9-52.4H488.6z m181-105.4v-30.6h-181v61.7H638c9.3-11.5 20-21.9 31.6-31.1z" p-id="9209"></path><path d="M853.9 717.8h-79.1c-13.8 0-25 11.3-25 25s11.2 25 25 25h79.1c13.8 0 25-11.3 25-25s-11.2-25-25-25z" p-id="9210"></path><path d="M766.4 643.1c-13.8 0-25 11.3-25 25v73.5c0 13.8 11.3 25 25 25s25-11.3 25-25v-73.5c0-13.8-11.3-25-25-25z" p-id="9211"></path><path d="M792 876c-88.8 0-161-72.2-161-161s72.2-161 161-161 161 72.2 161 161-72.2 161-161 161z m0-272c-61.2 0-111 49.8-111 111s49.8 111 111 111 111-49.8 111-111-49.8-111-111-111z" p-id="9212"></path></svg>