<?xml version="1.0" standalone="no"?><!DOCTYPE svg PUBLIC "-//W3C//DTD SVG 1.1//EN" "http://www.w3.org/Graphics/SVG/1.1/DTD/svg11.dtd"><svg t="1713749135238" class="icon" viewBox="0 0 1483 1024" version="1.1" xmlns="http://www.w3.org/2000/svg" p-id="4337" xmlns:xlink="http://www.w3.org/1999/xlink" width="289.6484375" height="200"><path d="M1368.116894 966.551555v-172.451264H114.879236v172.451264a57.430791 57.430791 0 0 1-114.879236 0V57.439618a57.430791 57.430791 0 0 1 114.879236 0v276.931872h1253.237658V256.002207a57.448445 57.448445 0 0 1 114.879235 0v710.549348a57.448445 57.448445 0 0 1-114.879235 0zM155.202607 653.039111h1172.573261a44.454574 44.454574 0 0 0 40.341026-25.828849v-37.074903a44.454574 44.454574 0 0 0-40.341026-25.846504H155.202607a44.472229 44.472229 0 0 0-40.323371 25.811194v37.180832a44.472229 44.472229 0 0 0 40.323371 25.75823z" p-id="4338"></path><path d="M513.734576 283.172814c0-64.775152-37.392688-117.280277-83.524461-117.280277h-232.689154c-46.131772 0-83.524461 52.505125-83.524461 117.280277v62.833134h399.738076v-62.833134z" p-id="4339"></path></svg>