<?xml version="1.0" standalone="no"?><!DOCTYPE svg PUBLIC "-//W3C//DTD SVG 1.1//EN" "http://www.w3.org/Graphics/SVG/1.1/DTD/svg11.dtd"><svg t="1713749348680" class="icon" viewBox="0 0 1279 1024" version="1.1" xmlns="http://www.w3.org/2000/svg" p-id="7691" xmlns:xlink="http://www.w3.org/1999/xlink" width="249.8046875" height="200"><path d="M80.339236 167.499311C-21.396078 332.495378 30.095231 549.622397 195.219226 651.293747l519.870335 320.237568a349.501262 349.501262 0 0 0 265.612004 42.856121c91.469035-21.747882 168.801946-77.716697 218.086485-157.672147a349.117476 349.117476 0 0 0 42.69621-265.771915 348.989547 348.989547 0 0 0-157.5762-218.022521l-259.695301-159.974864c-0.063964 0-0.159911-0.191893-0.191893-0.191893-0.191893-0.095947-0.255857-0.095947-0.351804-0.095946l-259.695301-159.974864A348.925583 348.925583 0 0 0 298.393739 9.827164a349.245405 349.245405 0 0 0-218.022521 157.672147z m171.904217 105.956963a56.19269 56.19269 0 0 1-77.173 18.325789 56.160708 56.160708 0 0 1-18.325789-77.204983c75.733802-122.811571 237.211829-161.126222 360.119346-85.488367a56.19269 56.19269 0 0 1 18.389753 77.204983 56.256654 56.256654 0 0 1-77.268946 18.325789A149.612638 149.612638 0 0 0 252.243453 273.488256z m498.282363 640.635046l-231.199178-142.384665 297.914006-483.666507 231.231161 142.448629c133.36569 82.130238 174.942524 257.456548 92.812286 390.854221a282.402649 282.402649 0 0 1-176.157847 127.35304 282.402649 282.402649 0 0 1-214.600428-34.604718z" fill="#A8B0BE" p-id="7692"></path></svg>