<?xml version="1.0" standalone="no"?><!DOCTYPE svg PUBLIC "-//W3C//DTD SVG 1.1//EN" "http://www.w3.org/Graphics/SVG/1.1/DTD/svg11.dtd"><svg t="1714654140754" class="icon" viewBox="0 0 1024 1024" version="1.1" xmlns="http://www.w3.org/2000/svg" p-id="10779" data-spm-anchor-id="a313x.search_index.0.i10.63ca3a81RD5Vk1" xmlns:xlink="http://www.w3.org/1999/xlink" width="200" height="200"><path d="M789.5 876h-553C161.2 876 100 814.8 100 739.5v-391c0-75.3 61.2-136.5 136.5-136.5h553c75.3 0 136.5 61.2 136.5 136.5v391c0 75.3-61.2 136.5-136.5 136.5z m-553-604c-42.2 0-76.5 34.3-76.5 76.5v391c0 42.2 34.3 76.5 76.5 76.5h553c42.2 0 76.5-34.3 76.5-76.5v-391c0-42.2-34.3-76.5-76.5-76.5h-553z" fill="#dbdbdb" p-id="10780"></path><path d="M640 574H384c-16.6 0-30-13.4-30-30s13.4-30 30-30h256c16.6 0 30 13.4 30 30s-13.4 30-30 30z" fill="#dbdbdb" p-id="10781"></path><path d="M512 702c-16.6 0-30-13.4-30-30V416c0-16.6 13.4-30 30-30s30 13.4 30 30v256c0 16.6-13.4 30-30 30z" fill="#dbdbdb" p-id="10782"></path><path d="M342 272c-16.6 0-30-13.4-30-30V128c0-16.6 13.4-30 30-30s30 13.4 30 30v114c0 16.6-13.4 30-30 30zM683 272c-16.6 0-30-13.4-30-30V128c0-16.6 13.4-30 30-30s30 13.4 30 30v114c0 16.6-13.4 30-30 30z" fill="#dbdbdb" p-id="10783"></path></svg>